<svg width="128" height="30" viewBox="0 0 128 30" fill="none" xmlns="http://www.w3.org/2000/svg">
<path d="M123.21 26.2104C120.619 26.2104 118.661 24.3966 118.661 21.0281C118.661 17.6596 120.619 15.8602 123.21 15.8602C125.787 15.8602 127.744 17.6596 127.744 21.0281C127.744 24.3966 125.787 26.2104 123.21 26.2104ZM123.21 25.2891C125.196 25.2891 126.665 23.8639 126.665 21.0281C126.665 18.2066 125.196 16.7815 123.21 16.7815C121.209 16.7815 119.741 18.2066 119.741 21.0281C119.741 23.8639 121.209 25.2891 123.21 25.2891Z" fill="white"/>
<path d="M114.005 26.0664L110.118 15.9897H111.241L114.61 24.9148H114.682L118.05 15.9897H119.158L115.286 26.0664H114.005Z" fill="white"/>
<path d="M108.816 26.0664V15.9897H109.882V26.0664H108.816Z" fill="white"/>
<path d="M104.309 26.0664V16.9542H101.084V15.9897H108.57V16.9542H105.359V26.0664H104.309Z" fill="white"/>
<path d="M93.7537 26.0664L97.6404 15.9897H98.9216L102.794 26.0664H101.686L100.707 23.4609H95.8554L94.8766 26.0664H93.7537ZM96.1721 22.6404H100.39L98.317 17.1414H98.245L96.1721 22.6404Z" fill="white"/>
<path d="M92.5239 26.0664V15.9897H93.5892V26.0664H92.5239Z" fill="white"/>
<path d="M85.0126 26.0664V15.9897H88.6402C90.9578 15.9897 92.1526 17.1558 92.1526 19.0703C92.1526 20.5962 91.3465 21.6615 89.8062 21.9926L92.2246 26.0664H91.145L88.8129 22.1221H86.0778V26.0664H85.0126ZM88.597 21.172C90.238 21.172 91.073 20.4235 91.073 19.0703C91.073 17.674 90.238 16.9254 88.597 16.9254H86.0778V21.172H88.597Z" fill="white"/>
<path d="M80.8494 26.2104C78.2151 26.2104 76.3293 24.4541 76.3293 21.0281C76.3293 17.6164 78.2151 15.8602 80.8638 15.8602C82.8791 15.8602 84.405 16.8678 84.7505 18.8544H83.7141C83.3542 17.5156 82.3033 16.7815 80.8494 16.7815C78.7909 16.7815 77.3945 18.2498 77.3945 21.0281C77.3945 23.8064 78.7765 25.2891 80.8494 25.2891C82.3033 25.2891 83.3542 24.5549 83.7141 23.2017H84.7505C84.405 25.2027 82.8791 26.2104 80.8494 26.2104Z" fill="white"/>
<path d="M65.7679 26.0664V15.9897H66.9771L72.4761 24.4686H72.5049V15.9897H73.5557V26.0664H72.3321L66.8619 17.6164H66.8331V26.0664H65.7679Z" fill="white"/>
<path d="M61.0993 26.2104C58.3642 26.2104 56.5504 24.4397 56.5504 21.0425C56.5504 17.6164 58.4218 15.8602 61.0993 15.8602C63.0427 15.8602 64.4534 16.7671 64.8709 18.4945H63.8344C63.4457 17.4005 62.5101 16.7815 61.0993 16.7815C58.9544 16.7815 57.6013 18.2354 57.6013 21.0281C57.6013 23.8207 58.9688 25.2891 61.1137 25.2891C62.9851 25.2891 64.2231 24.1806 64.2087 21.8198H61.6031V20.9561H65.2452V21.6039C65.2452 24.6269 63.7049 26.2104 61.0993 26.2104Z" fill="white"/>
<path d="M55.0327 26.0664V15.9897H56.098V26.0664H55.0327Z" fill="white"/>
<path d="M50.8952 26.2104C48.3761 26.2104 47.0805 24.9292 47.0805 23.1874H48.1458C48.2177 24.3678 49.0383 25.3035 50.9096 25.3035C52.6371 25.3035 53.4864 24.4973 53.4864 23.3169C53.4864 22.1365 52.6227 21.6615 51.4135 21.4167L50.0891 21.1432C48.3041 20.7833 47.3828 19.9196 47.3828 18.5233C47.3828 16.9254 48.5632 15.8602 50.8233 15.8602C53.0401 15.8602 54.2781 16.9254 54.2781 18.4945H53.2273C53.1697 17.5156 52.4355 16.7671 50.8089 16.7671C49.1534 16.7671 48.4768 17.53 48.4768 18.5233C48.4768 19.387 49.0095 20.006 50.3914 20.2939L51.687 20.553C53.4576 20.8985 54.5804 21.6471 54.5804 23.3025C54.5804 25.1307 53.2129 26.2104 50.8952 26.2104Z" fill="white"/>
<path d="M40.502 26.0664V15.9897H46.8503V16.9254H41.5672V20.4523H46.4184V21.316H41.5672V25.1307H46.9942V26.0664H40.502Z" fill="white"/>
<path d="M32.0909 26.0664V15.9897H35.2866C38.468 15.9897 40.0515 17.8179 40.0515 21.0281C40.0515 24.2382 38.468 26.0664 35.2866 26.0664H32.0909ZM35.1859 25.1307C37.8058 25.1307 38.9718 23.7776 38.9718 21.0281C38.9718 18.2642 37.8058 16.9254 35.1859 16.9254H33.1561V25.1307H35.1859Z" fill="white"/>
<path d="M116.542 13.2104C113.951 13.2104 111.993 11.3966 111.993 8.02807C111.993 4.65958 113.951 2.86017 116.542 2.86017C119.119 2.86017 121.076 4.65958 121.076 8.02807C121.076 11.3966 119.119 13.2104 116.542 13.2104ZM116.542 12.2891C118.528 12.2891 119.997 10.8639 119.997 8.02807C119.997 5.2066 118.528 3.78146 116.542 3.78146C114.541 3.78146 113.073 5.2066 113.073 8.02807C113.073 10.8639 114.541 12.2891 116.542 12.2891Z" fill="white"/>
<path d="M103.589 13.0664L107.476 2.98975H108.757L112.629 13.0664H111.521L110.542 10.4609H105.691L104.712 13.0664H103.589ZM106.008 9.64035H110.225L108.152 4.14137H108.08L106.008 9.64035Z" fill="white"/>
<path d="M97.1145 13.2104C94.3794 13.2104 92.5656 11.4397 92.5656 8.04246C92.5656 4.61639 94.4369 2.86017 97.1145 2.86017C99.0578 2.86017 100.469 3.76707 100.886 5.4945H99.8495C99.4609 4.40046 98.5252 3.78146 97.1145 3.78146C94.9696 3.78146 93.6164 5.23539 93.6164 8.02807C93.6164 10.8207 94.984 12.2891 97.1288 12.2891C99.0002 12.2891 100.238 11.1806 100.224 8.8198H97.6183V7.95609H101.26V8.60388C101.26 11.6269 99.72 13.2104 97.1145 13.2104Z" fill="white"/>
<path d="M84.3141 13.0664V2.98975H85.5233L91.0223 11.4686H91.0511V2.98975H92.102V13.0664H90.8784L85.4082 4.61641H85.3794V13.0664H84.3141Z" fill="white"/>
<path d="M82.5103 13.0664V2.98975H83.5755V13.0664H82.5103Z" fill="white"/>
<path d="M75.8704 13.0664V2.98975H82.2475V3.92544H76.9357V7.58183H81.283V8.47434H76.9357V13.0664H75.8704Z" fill="white"/>
<path d="M69.076 13.0664V2.98975H75.4243V3.92544H70.1412V7.45228H74.9924V8.31599H70.1412V12.1307H75.5682V13.0664H69.076Z" fill="white"/>
<path d="M67.2721 13.0664V2.98975H68.3373V13.0664H67.2721Z" fill="white"/>
<path d="M59.7607 13.0664V2.98975H63.3883C65.7059 2.98975 66.9007 4.15576 66.9007 6.07033C66.9007 7.59623 66.0946 8.66148 64.5543 8.99257L66.9727 13.0664H65.8931L63.561 9.12213H60.8259V13.0664H59.7607ZM63.3451 8.17204C64.9862 8.17204 65.8211 7.42348 65.8211 6.07033C65.8211 4.67399 64.9862 3.92544 63.3451 3.92544H60.8259V8.17204H63.3451Z" fill="white"/>
<path d="M52.1227 13.0664V2.98975H55.8655C57.924 2.98975 58.8165 4.01181 58.8165 5.39375C58.8165 6.44461 58.3271 7.22195 57.3194 7.55304C58.6438 7.86974 59.4499 8.74785 59.4499 10.173C59.4499 11.8716 58.3127 13.0664 55.8943 13.0664H52.1227ZM55.8223 12.1451C57.521 12.1451 58.3415 11.3534 58.3415 10.1154C58.3415 8.9062 57.521 8.10006 55.8223 8.10006H53.188V12.1451H55.8223ZM55.7647 7.19316C57.1179 7.19316 57.7369 6.54537 57.7369 5.50892C57.7369 4.48685 57.1179 3.89665 55.7647 3.89665H53.188V7.19316H55.7647Z" fill="white"/>
<path d="M44.8349 13.2104C42.2438 13.2104 40.286 11.3966 40.286 8.02807C40.286 4.65958 42.2438 2.86017 44.8349 2.86017C47.4117 2.86017 49.3694 4.65958 49.3694 8.02807C49.3694 11.3966 47.4117 13.2104 44.8349 13.2104ZM44.8349 12.2891C46.8215 12.2891 48.2898 10.8639 48.2898 8.02807C48.2898 5.2066 46.8215 3.78146 44.8349 3.78146C42.834 3.78146 41.3657 5.2066 41.3657 8.02807C41.3657 10.8639 42.834 12.2891 44.8349 12.2891Z" fill="white"/>
<path d="M32.0909 13.0664V2.98975H35.2866C38.468 2.98975 40.0515 4.81794 40.0515 8.02809C40.0515 11.2382 38.468 13.0664 35.2866 13.0664H32.0909ZM35.1859 12.1307C37.8058 12.1307 38.9718 10.7776 38.9718 8.02809C38.9718 5.2642 37.8058 3.92544 35.1859 3.92544H33.1561V12.1307H35.1859Z" fill="white"/>
<path d="M24.9416 10.2532C27.391 15.916 24.786 22.4921 19.1233 24.9415C13.4606 27.3909 6.88444 24.786 4.43503 19.1233C1.98563 13.4606 4.59054 6.88442 10.2533 4.43502C15.916 1.98562 22.4922 4.59053 24.9416 10.2532Z" fill="#8950FF"/>
<path d="M24.1715 10.5831C26.438 15.8228 24.0276 21.9078 18.7879 24.1742C13.5482 26.4407 7.46322 24.0303 5.19677 18.7906C2.93033 13.5509 5.34066 7.46591 10.5804 5.19947C15.8201 2.93303 21.9051 5.34336 24.1715 10.5831Z" fill="#8950FF"/>
<path d="M23.6472 10.8099C21.5061 5.85982 15.7573 3.58267 10.8072 5.72381C5.85712 7.86496 3.57996 13.6137 5.72111 18.5638C7.86227 23.5139 13.611 25.791 18.5611 23.6499L18.7879 24.1742L18.294 24.373C13.3367 26.2252 7.76491 24.0181 5.42062 19.2737L5.19677 18.7906C2.93034 13.5509 5.34068 7.4659 10.5804 5.19947L11.0743 5.00072C16.197 3.08674 21.976 5.50721 24.1715 10.5831L24.3703 11.077C26.2843 16.1997 23.8638 21.9787 18.7879 24.1742L18.5611 23.6499C23.5112 21.5087 25.7883 15.76 23.6472 10.8099Z" fill="#F4EDE8"/>
<path fill-rule="evenodd" clip-rule="evenodd" d="M11.6944 8.74427C11.687 8.8034 11.6513 9.38221 11.6152 10.0305C11.5791 10.6787 11.4894 12.2299 11.416 13.4774C11.2914 15.5941 11.286 15.7539 11.3352 15.8678C11.3833 15.9788 11.4778 16.0673 12.3796 16.8446L13.3711 17.6994L15.5727 16.7481L17.7742 15.7967L17.8269 15.0683C17.9525 13.3325 17.9572 13.2158 17.9061 13.0976C17.8575 12.9851 17.5099 12.6874 15.1758 10.7585C14.5727 10.26 13.7416 9.57188 12.8868 8.86311C12.4519 8.50257 12.2947 8.38563 12.2631 8.3993C12.2226 8.41678 12.2708 8.53327 13.3602 11.0517L14.4996 13.6859L14.5605 13.6759C14.6664 13.6585 14.9093 13.7554 15.0186 13.8584C15.3861 14.2051 15.2866 14.8083 14.8303 14.9997C14.7523 15.0324 14.6493 15.0614 14.6015 15.064C14.2364 15.0841 13.9126 14.8184 13.8677 14.4617C13.8452 14.2833 13.9217 14.0319 14.037 13.9053L14.1166 13.8179L13.3397 12.0708C11.978 9.0088 11.797 8.61691 11.7493 8.62753C11.7239 8.63318 11.7027 8.67829 11.6944 8.74427ZM13.4458 18.069C13.2097 18.3022 13.1535 18.596 13.2865 18.9029C13.3985 19.1612 13.6509 19.3301 13.932 19.3347L14.0795 19.3372L16.2807 18.385L18.4818 17.4329L18.5694 17.33C18.694 17.1836 18.772 16.9321 18.7491 16.7507C18.7051 16.4015 18.4206 16.1368 18.0529 16.1029C17.9649 16.0948 17.8124 16.1572 15.7321 17.0522C14.0639 17.7699 13.4906 18.0249 13.4458 18.069ZM14.4684 19.5902C14.3844 19.6934 14.3509 19.79 14.3563 19.9133C14.3604 20.0088 14.4124 20.1415 14.6997 20.7897C15.0381 21.5533 15.0383 21.5537 15.1308 21.6118C15.1817 21.6439 15.2716 21.6795 15.3306 21.691L15.438 21.7119L17.3601 20.8805L19.2822 20.0491L19.352 19.942C19.487 19.7351 19.482 19.7128 19.1047 18.8405C18.7442 18.0072 18.7284 17.9809 18.5476 17.9163C18.4954 17.8976 18.4179 17.8839 18.3755 17.8859C18.3234 17.8884 17.6876 18.1538 16.4108 18.7062C14.7465 19.4262 14.5167 19.5308 14.4684 19.5902Z" fill="white"/>
</svg>
