<svg width="198" height="361" viewBox="0 0 198 361" fill="none" xmlns="http://www.w3.org/2000/svg">
<path fill-rule="evenodd" clip-rule="evenodd" d="M197.086 1.65225C189.239 7.41328 181.296 18.8787 176.226 31.7616C173.267 39.2816 170.699 49.3416 169.317 58.8192C167.926 68.3683 167.726 71.2225 167.577 83.6426C167.356 102.025 168.299 115.976 170.782 131.055C171.074 132.83 171.526 135.623 171.786 137.261C172.046 138.9 172.482 141.357 172.755 142.722C173.028 144.088 173.472 146.434 173.742 147.935C174.235 150.671 174.926 153.901 175.814 157.617C176.075 158.709 176.488 160.496 176.732 161.588C176.975 162.68 177.33 164.222 177.521 165.013C177.768 166.036 177.704 166.351 177.3 166.101C176.987 165.908 176.731 165.361 176.731 164.885C176.731 164.41 176.553 163.809 176.336 163.549C176.118 163.29 175.657 162.184 175.31 161.092C174.963 160 174.493 158.659 174.264 158.113C174.036 157.567 173.359 155.78 172.759 154.141C172.16 152.503 171.468 150.66 171.222 150.045C170.975 149.431 170.55 148.37 170.277 147.687C170.004 147.004 169.527 145.831 169.218 145.081C168.908 144.33 168.484 143.269 168.275 142.722C167.815 141.517 166.764 139.054 165.365 135.896C164.79 134.599 163.854 132.477 163.285 131.18C161.768 127.723 153.577 111.316 152.069 108.714C150.584 106.151 149.377 104.045 147.876 101.394C147.297 100.371 146.18 98.5997 145.393 97.4569C144.608 96.314 143.953 95.196 143.94 94.972C143.926 94.7481 143.032 93.3362 141.951 91.8344C140.87 90.3325 139.054 87.7633 137.914 86.125C136.774 84.4866 134.863 81.9174 133.666 80.4156C132.47 78.9138 131.139 77.2382 130.709 76.6921C124.758 69.1323 114.561 59.0575 107.509 53.7701C104.54 51.5434 101.529 49.4324 100.82 49.0789C100.111 48.7255 99.1951 48.1793 98.7855 47.8656C97.3889 46.7957 91.5941 43.8745 88.1114 42.4853C80.0125 39.2543 76.3932 38.5141 68.7491 38.523C61.6779 38.532 58.2528 39.2985 52.3656 42.1894C42.4636 47.0524 35.934 59.5877 36.8857 71.9086C37.4974 79.8312 41.2422 91.0971 45.2716 97.1366C46.0332 98.278 46.6562 99.4512 46.6562 99.7431C46.6562 100.036 46.8439 100.274 47.0728 100.274C47.3021 100.274 47.7519 100.849 48.0722 101.552C48.5572 102.617 51.2208 106.346 52.1244 107.225C52.2644 107.361 53.3764 108.702 54.5948 110.204C59.6473 116.43 67.7696 123.985 76.0542 130.164C81.1171 133.94 92.9942 141.978 93.5105 141.978C93.6927 141.978 96.4129 143.54 101.526 146.581C104.643 148.435 126.094 158.858 126.792 158.858C126.939 158.858 128.522 159.528 130.311 160.347C132.1 161.166 133.784 161.836 134.054 161.836C134.324 161.836 134.933 162.034 135.407 162.275C137.133 163.153 141.853 164.963 145.454 166.128C146.682 166.526 148.135 167.051 148.681 167.296C149.827 167.81 156.914 170.118 162.334 171.744C164.381 172.358 166.445 173.061 166.919 173.306C167.393 173.551 168.343 173.752 169.029 173.752C169.715 173.752 170.277 173.975 170.277 174.248C170.277 174.854 167.958 174.914 167.59 174.318C167.445 174.084 166.036 173.747 164.457 173.57C162.88 173.393 160.248 173.018 158.61 172.736C149.782 171.22 139.972 169.904 128.822 168.741C120.837 167.908 91.5122 167.584 84.3879 168.249C64.9278 170.068 51.5862 172.963 38.4645 178.213C31.8699 180.852 21.7946 186.601 17.6128 190.113C15.6359 191.773 8.93304 198.5 7.69633 200.065C5.76507 202.509 2.50476 208.694 1.70544 211.428C1.25763 212.96 0.688179 214.727 0.439448 215.354C-0.142911 216.825 -0.147875 225.982 0.432994 227.471C0.677753 228.098 1.16975 229.617 1.52721 230.846C4.81632 242.163 17.2628 250.955 33.8051 253.646C38.0663 254.339 49.7775 254.337 54.848 253.642C58.6192 253.126 65.8175 251.586 68.5009 250.723C69.1835 250.503 70.7474 250.041 71.9762 249.696C76.4484 248.442 86.1216 245.119 88.8204 243.91C92.4262 242.296 105.064 236.046 106.967 234.936C107.781 234.461 109.871 233.235 111.61 232.211C113.35 231.187 114.867 230.349 114.981 230.349C115.502 230.349 133.637 217.974 138.396 214.37C143.198 210.735 148.28 206.706 148.929 206.022C149.065 205.878 150.406 204.763 151.908 203.545C155.006 201.031 161.25 195.575 165.308 191.834C172.279 185.408 173.286 184.539 173.502 184.754C173.628 184.881 172.825 185.976 171.716 187.188C170.136 188.915 162.475 198.251 158.703 203.048C157.56 204.5 151.068 213.264 148.59 216.696C144.993 221.68 136.727 234.556 134.406 238.789C133.733 240.018 132.525 242.14 131.722 243.506C125.981 253.268 118.399 270.981 114.722 283.223C113.51 287.256 111.786 295.327 110.731 301.898C110.057 306.098 110.046 322.027 110.715 325.079C110.996 326.36 111.463 328.526 111.753 329.891C114.851 344.457 124.073 355.703 135.524 358.879C136.753 359.22 138.444 359.707 139.283 359.961C141.204 360.544 145.355 360.559 147.241 359.99C148.033 359.75 149.909 359.277 151.411 358.936C153.872 358.379 156.842 357.107 161.092 354.789C163.882 353.268 169.013 348.732 172.147 345.017C179.252 336.593 186.178 322.309 189.109 310.032C189.435 308.667 189.901 306.768 190.145 305.812C191.06 302.229 192.059 296.284 193.148 287.955C193.826 282.767 194.117 258.625 193.603 250.208C192.901 238.713 190.984 223.716 188.699 211.856C188.397 210.285 187.906 207.717 187.607 206.146C186.959 202.732 186.402 200.101 185.692 197.086C185.402 195.857 184.954 193.846 184.696 192.618C184.438 191.389 184.072 189.736 183.883 188.944C183.637 187.922 183.702 187.607 184.106 187.856C184.419 188.05 184.675 188.645 184.675 189.179C184.675 189.712 184.88 190.537 185.131 191.011C185.383 191.485 186.075 193.213 186.669 194.852C187.264 196.49 187.931 198.277 188.153 198.823C188.374 199.37 189.153 201.38 189.884 203.292C190.614 205.203 191.551 207.549 191.966 208.505C192.38 209.46 192.897 210.689 193.115 211.235C193.332 211.781 193.868 213.066 194.305 214.09C194.743 215.114 195.456 216.79 195.892 217.813C196.327 218.838 197.109 220.534 197.629 221.584C198.15 222.634 198.576 223.806 198.576 224.191C198.576 224.574 198.783 224.888 199.036 224.888C199.289 224.888 199.617 225.279 199.765 225.757C199.913 226.234 199.93 222.848 199.802 218.23C199.673 213.613 199.569 203.658 199.569 196.108V182.38L196.466 181.497C191.953 180.213 191.692 180.095 192.793 179.834C193.299 179.715 194.682 179.861 195.868 180.16C199.855 181.164 199.569 181.95 199.569 169.992V159.282L198.203 160.351C197.453 160.938 195.144 163.022 193.073 164.979C187.897 169.872 186.253 171.278 187.172 170.028C187.574 169.482 188.033 168.924 188.193 168.787C188.353 168.651 190.979 165.545 194.027 161.885L199.569 155.231V77.6095C199.569 34.9177 199.513 -0.00694953 199.445 1.03728e-06C199.377 0.00645513 198.315 0.750166 197.086 1.65225ZM0.175823 221.413C0.175823 224.553 0.256747 225.838 0.355048 224.267C0.453349 222.697 0.453349 220.128 0.355048 218.558C0.256747 216.988 0.175823 218.273 0.175823 221.413Z" fill="#EBE5E0"/>
</svg>
