<svg width="104" height="103" viewBox="0 0 104 103" fill="none" xmlns="http://www.w3.org/2000/svg">
<path fill-rule="evenodd" clip-rule="evenodd" d="M87.968 12.3854C87.1975 11.7359 86.4617 11.3441 85.3423 10.9872C81.4044 9.73181 76.4051 11.1278 71.7595 14.7799C69.4348 16.6075 67.1586 18.9976 65.0246 21.8516C61.4535 26.6277 58.2028 32.8268 55.5908 39.842C54.5386 42.6679 54.2667 43.4769 53.2079 46.9332C52.6476 48.7621 52.1888 50.2442 52.1884 50.2267C52.188 50.2093 52.3259 49.4873 52.4949 48.6223C55.1412 35.0793 55.2267 23.564 52.7479 14.5956C52.3715 13.2337 51.4463 10.7332 50.8817 9.55172C49.4585 6.57376 47.7771 4.3042 45.7522 2.62815C44.3733 1.48674 43.1271 0.806925 41.5768 0.3504C40.5564 0.0498903 39.714 -0.0446272 38.6186 0.0186176C37.1569 0.103027 35.7339 0.593819 34.5302 1.42875C33.8745 1.88343 32.6385 3.17812 32.1159 3.95742C31.2253 5.2856 30.5047 7.20908 30.1805 9.12357C28.5749 18.6039 34.3336 31.7042 45.9432 44.9821C47.131 46.3406 49.9733 49.4151 50.6948 50.1219L51.3014 50.7162L50.5033 50.0431C50.0644 49.6728 49.0136 48.7865 48.1683 48.0735C37.6207 39.1764 27.7843 33.7249 18.8884 31.8464C16.6905 31.3822 14.5591 31.1724 12.4987 31.2174C8.91295 31.2956 6.10179 32.1002 3.79229 33.7092C2.98027 34.2749 1.81432 35.4684 1.30571 36.2544C-0.675477 39.3164 -0.391701 43.0375 2.08614 46.4862C2.6927 47.3304 4.63196 49.178 5.64545 49.8771C11.0266 53.5891 18.9267 55.3521 28.827 55.0502C34.7277 54.8703 40.2587 54.1087 47.3347 52.5019C48.6762 52.1973 49.7857 51.9475 49.8003 51.9467C49.8148 51.9459 49.7908 51.9831 49.7468 52.0291C49.7029 52.0752 49.6445 52.0915 49.617 52.0654C49.5897 52.0392 49.5574 52.064 49.5455 52.1203C49.5311 52.1885 49.5138 52.1839 49.4936 52.1065C49.4713 52.0214 49.4485 52.0253 49.4085 52.1212C49.3726 52.2072 49.3451 52.2185 49.3282 52.154C49.3128 52.0949 49.2835 52.0964 49.2545 52.1581C49.2281 52.2144 48.6878 52.4377 48.0538 52.6545C46.6342 53.1398 43.6672 54.2735 41.8915 55.0091C32.262 58.9985 24.4508 63.9349 19.4227 69.2087C17.023 71.7256 15.4399 73.9469 14.2196 76.5091C11.7217 81.7537 12.099 86.7916 15.2122 89.7609C16.9516 91.4199 19.2337 92.1845 22.0726 92.0591C25.4255 91.911 29.0314 90.2965 32.7818 87.2643C33.983 86.293 37.1194 83.0055 38.2433 81.5396C43.495 74.6892 47.5281 66.211 50.9336 54.8624C51.3367 53.5191 51.6744 52.4276 51.6842 52.4369C51.694 52.4463 51.6368 52.7637 51.5571 53.1424C51.4774 53.5212 51.2516 54.7098 51.0552 55.7839C48.1702 71.5666 48.8982 84.7376 53.14 93.4995C55.3504 98.0655 58.6308 101.297 62.1089 102.334C66.6032 103.675 70.7378 101.564 72.7482 96.9018C73.6206 94.879 74.0053 92.4679 73.9088 89.6281C73.7395 84.6477 72.1303 79.3582 68.9725 73.4021C65.5549 66.9558 60.5921 60.3571 53.9231 53.3917C53.203 52.6396 52.6134 52.0116 52.6128 51.9962C52.6122 51.9807 53.1626 52.4605 53.836 53.0624C57.8827 56.6799 63.9482 61.2202 67.9492 63.6266C70.9887 65.4547 71.9401 65.9724 74.6103 67.251C85.0026 72.2273 94.4027 72.8895 100.076 69.0451C100.912 68.4789 102.211 67.0919 102.688 66.2558C103.536 64.7716 103.882 63.461 103.845 61.8788C103.789 59.5278 102.792 57.3026 100.821 55.135C97.7843 51.7937 92.3543 49.3099 85.8016 48.2647C77.6442 46.9636 67.0503 47.7061 55.9121 50.3595C55.0152 50.5732 54.2729 50.7155 54.2625 50.6758C54.2521 50.636 54.3298 50.569 54.4352 50.5268C54.5405 50.4845 54.6344 50.4792 54.6437 50.5149C54.6531 50.5507 54.6875 50.5461 54.7204 50.5047C54.7532 50.4634 55.7451 50.0778 56.9246 49.6481C67.2243 45.8952 75.0132 41.6494 81.3349 36.3417C82.5131 35.3525 85.1057 32.7315 86.0329 31.5922C88.3097 28.7947 89.7344 26.2728 90.5355 23.6226C91.244 21.2788 91.3768 19.2568 90.9537 17.2573C90.5277 15.2435 89.6397 13.7946 87.968 12.3854ZM54.1057 50.6673C54.0946 50.7195 54.0419 50.7448 53.9884 50.7236C53.9189 50.6959 53.909 50.7043 53.9536 50.7528C54.0437 50.8509 54.1842 50.7961 54.1525 50.6752C54.1366 50.6139 54.1176 50.6108 54.1057 50.6673Z" fill="#EBE5E0"/>
</svg>
