<svg width="48" height="48" viewBox="0 0 48 48" fill="none" xmlns="http://www.w3.org/2000/svg">
<circle cx="24" cy="24" r="24" transform="matrix(1 0 0 -1 0 48)" fill="#313131"/>
<path d="M22.7882 30.0902C22.7882 30.5925 23.1956 31 23.698 31C24.2003 31 24.6078 30.5925 24.6078 30.0902V19.5519L28.8435 23.7876C29.1987 24.1428 29.7744 24.1428 30.1296 23.7876C30.4848 23.4324 30.4848 22.8567 30.1296 22.5015L24.341 16.713C23.9858 16.3578 23.4102 16.3578 23.055 16.713L17.2664 22.5015C16.9112 22.8567 16.9112 23.4324 17.2664 23.7876C17.6216 24.1428 18.1973 24.1428 18.5525 23.7876L22.7882 19.5519V30.0902Z" fill="#626262"/>
</svg>
