<svg width="126" height="126" viewBox="0 0 126 126" fill="none" xmlns="http://www.w3.org/2000/svg">
<circle cx="63" cy="63" r="63" fill="#F4EDE8"/>
<path d="M66.5745 40C66.5745 38.0259 64.9741 36.4255 63 36.4255C61.0259 36.4255 59.4255 38.0259 59.4255 40H63H66.5745ZM60.4725 87.2084C61.8684 88.6043 64.1316 88.6043 65.5275 87.2084L88.2753 64.4606C89.6712 63.0647 89.6712 60.8015 88.2753 59.4055C86.8794 58.0096 84.6162 58.0096 83.2202 59.4055L63 79.6258L42.7798 59.4055C41.3838 58.0096 39.1206 58.0096 37.7247 59.4055C36.3288 60.8015 36.3288 63.0647 37.7247 64.4606L60.4725 87.2084ZM63 40H59.4255V84.6809H63H66.5745V40H63Z" fill="#C9408F"/>
</svg>
