<svg width="17" height="17" viewBox="0 0 17 17" fill="none" xmlns="http://www.w3.org/2000/svg">
<circle cx="8.5" cy="8.5" r="8.5" transform="matrix(1 0 0 -1 0 17)" fill="#F4EDE8"/>
<path d="M8.0708 10.6563C8.0708 10.8342 8.2151 10.9785 8.39302 10.9785C8.57094 10.9785 8.71525 10.8342 8.71525 10.6563V6.92397L10.2154 8.42412C10.3412 8.54992 10.5451 8.54992 10.6709 8.42412C10.7967 8.29831 10.7967 8.09444 10.6709 7.96864L8.62076 5.91853C8.49496 5.79272 8.29109 5.79272 8.16528 5.91853L6.11517 7.96864C5.98936 8.09444 5.98936 8.29831 6.11517 8.42412C6.24097 8.54992 6.44485 8.54992 6.57065 8.42412L8.0708 6.92397V10.6563Z" fill="#D82099"/>
</svg>
