<svg width="50" height="50" viewBox="0 0 50 50" fill="none" xmlns="http://www.w3.org/2000/svg">
<circle cx="25" cy="25" r="25" transform="matrix(-1 0 0 1 50 0)" fill="#565353"/>
<path d="M33.6206 23.7069C34.3348 23.7069 34.9137 24.2858 34.9137 25C34.9137 25.7142 34.3348 26.2931 33.6206 26.2931V25V23.7069ZM15.4649 25.9144C14.9599 25.4094 14.9599 24.5906 15.4649 24.0856L23.6941 15.8564C24.1991 15.3514 25.0179 15.3514 25.5228 15.8564C26.0278 16.3614 26.0278 17.1801 25.5228 17.6851L18.208 25L25.5228 32.3149C26.0278 32.8199 26.0278 33.6386 25.5228 34.1436C25.0179 34.6486 24.1991 34.6486 23.6941 34.1436L15.4649 25.9144ZM33.6206 25V26.2931H16.3792V25V23.7069H33.6206V25Z" fill="#313131"/>
</svg>
