<svg width="23" height="26" viewBox="0 0 23 26" fill="none" xmlns="http://www.w3.org/2000/svg">
<path fill-rule="evenodd" clip-rule="evenodd" d="M11.2763 0.00569641C11.0316 0.020737 10.8363 0.0753037 10.5794 0.200417C9.67541 0.640593 9.02978 1.72568 8.8252 3.14851C8.72284 3.86052 8.72344 4.6634 8.82698 5.52407C9.00026 6.96435 9.46885 8.60133 10.1869 10.2747C10.4761 10.9488 10.5641 11.1369 10.958 11.923C11.1664 12.339 11.3345 12.677 11.3315 12.674C11.3285 12.671 11.2316 12.5207 11.1161 12.3401C9.30809 9.51184 7.38981 7.47049 5.44773 6.30801C5.15281 6.13148 4.57014 5.84665 4.27239 5.73348C3.5219 5.44821 2.84486 5.33103 2.20704 5.37596C1.77268 5.40655 1.43918 5.49611 1.08964 5.67604C0.859559 5.79447 0.695408 5.91926 0.513212 6.1143C0.270084 6.37457 0.102009 6.69987 0.0302988 7.04894C-0.00877667 7.23906 -0.00898341 7.67449 0.0298668 7.8994C0.0960942 8.28272 0.292185 8.74229 0.55655 9.13372C1.86563 11.0721 5.07876 12.4112 9.35164 12.7993C9.78881 12.839 10.8053 12.903 11.051 12.9063L11.2575 12.909L11.004 12.9245C10.8646 12.9331 10.5309 12.9535 10.2623 12.9699C6.91193 13.1746 4.26519 13.8665 2.38388 15.0294C1.91905 15.3167 1.50865 15.6376 1.15352 15.9915C0.535464 16.6073 0.17571 17.2209 0.0393305 17.8919C-0.00862668 18.1278 -0.0134902 18.5336 0.0289465 18.7574C0.194299 19.629 0.869004 20.2363 1.88418 20.4274C2.1327 20.4742 2.78425 20.4738 3.08003 20.4267C4.65047 20.1766 6.3371 19.1606 8.02912 17.4452C9.03759 16.4229 9.88332 15.3602 10.8591 13.8894C11.0441 13.6105 11.1975 13.3802 11.1999 13.3777C11.2023 13.3751 11.2043 13.3856 11.2043 13.4011C11.2043 13.4166 11.1968 13.4293 11.1876 13.4293C11.1784 13.4293 11.1768 13.4391 11.1842 13.451C11.1931 13.4654 11.1893 13.4675 11.1728 13.4573C11.1545 13.446 11.1512 13.4506 11.1602 13.4741C11.1684 13.4953 11.1654 13.5019 11.1516 13.4934C11.139 13.4856 11.1341 13.4908 11.1393 13.5065C11.1441 13.5208 11.0865 13.6509 11.0113 13.7955C10.8429 14.1192 10.511 14.8169 10.3219 15.2446C9.29666 17.5635 8.75048 19.7439 8.75084 21.5164C8.75101 22.3624 8.84529 23.0192 9.06065 23.6751C9.5015 25.0176 10.4137 25.8411 11.4603 25.8411C12.045 25.8411 12.5751 25.5925 13.0537 25.0938C13.6191 24.5048 13.9828 23.6152 14.1338 22.4518C14.1822 22.0791 14.1823 20.9739 14.134 20.5271C13.9083 18.4395 13.1948 16.27 11.8889 13.7006C11.7343 13.3965 11.6105 13.1476 11.6138 13.1476C11.6171 13.1476 11.6603 13.2131 11.7099 13.2932C11.7595 13.3732 11.9193 13.6204 12.065 13.8424C14.207 17.1049 16.5465 19.3012 18.7643 20.1313C19.9199 20.5639 21.0399 20.582 21.8263 20.1807C22.8425 19.6621 23.2159 18.5963 22.787 17.4381C22.601 16.9356 22.2639 16.4466 21.7701 15.9629C20.9041 15.1146 19.7328 14.4537 18.177 13.9355C16.4931 13.3746 14.5116 13.0462 12.1682 12.9398C11.9152 12.9283 11.706 12.9168 11.7033 12.9142C11.7006 12.9115 11.878 12.9036 12.0976 12.8965C13.4173 12.8538 15.2473 12.6347 16.3556 12.3865C17.1975 12.198 17.4519 12.1294 18.1366 11.9062C20.8014 11.0373 22.5673 9.57565 22.9205 7.94634C22.9725 7.70641 22.9683 7.24419 22.912 7.01687C22.812 6.61331 22.6529 6.32446 22.3807 6.05224C21.9762 5.64772 21.427 5.42352 20.7162 5.37275C19.6206 5.29448 18.2478 5.76895 16.9189 6.68513C15.2645 7.82568 13.5244 9.73503 12.0093 12.0721C11.8872 12.2603 11.7805 12.41 11.772 12.4048C11.7635 12.3995 11.7659 12.3747 11.7774 12.3495C11.7888 12.3244 11.8044 12.3077 11.8121 12.3125C11.8197 12.3172 11.825 12.3106 11.8239 12.2978C11.8227 12.285 11.9326 12.0506 12.068 11.7769C13.251 9.38705 13.9092 7.33197 14.1308 5.3363C14.1721 4.96436 14.1884 4.06771 14.1604 3.7115C14.0915 2.8368 13.9189 2.15367 13.6149 1.55268C13.3461 1.02115 13.03 0.642922 12.6198 0.361995C12.2067 0.0790406 11.8072 -0.0269197 11.2763 0.00569641ZM11.743 12.4296C11.7498 12.4406 11.7447 12.454 11.7318 12.4592C11.7149 12.466 11.7146 12.4691 11.7306 12.4702C11.7629 12.4723 11.7784 12.4391 11.7525 12.4231C11.7394 12.415 11.7356 12.4176 11.743 12.4296Z" fill="#F4EDE8"/>
</svg>
