<svg width="49" height="49" viewBox="0 0 49 49" fill="none" xmlns="http://www.w3.org/2000/svg">
<circle cx="24.1498" cy="24.1498" r="24.1498" fill="#C9408F"/>
<path fill-rule="evenodd" clip-rule="evenodd" d="M23.9453 11.8822C23.7006 11.8972 23.5053 11.9518 23.2483 12.0769C22.3444 12.5171 21.6987 13.6021 21.4941 15.025C21.3918 15.737 21.3924 16.5399 21.4959 17.4005C21.6692 18.8408 22.1378 20.4778 22.8558 22.1512C23.1451 22.8253 23.233 23.0133 23.6269 23.7995C23.8354 24.2155 24.0034 24.5534 24.0004 24.5504C23.9974 24.5474 23.9005 24.3972 23.785 24.2165C21.977 21.3883 20.0588 19.347 18.1167 18.1845C17.8218 18.0079 17.2391 17.7231 16.9413 17.6099C16.1908 17.3247 15.5138 17.2075 14.876 17.2524C14.4416 17.283 14.1081 17.3726 13.7586 17.5525C13.5285 17.6709 13.3644 17.7957 13.1822 17.9908C12.939 18.251 12.771 18.5763 12.6992 18.9254C12.6602 19.1155 12.66 19.551 12.6988 19.7759C12.765 20.1592 12.9611 20.6188 13.2255 21.0102C14.5346 22.9485 17.7477 24.2877 22.0206 24.6757C22.4578 24.7155 23.4743 24.7794 23.7199 24.7827L23.9265 24.7855L23.673 24.801C23.5336 24.8095 23.1998 24.8299 22.9313 24.8463C19.5809 25.0511 16.9341 25.743 15.0528 26.9059C14.588 27.1932 14.1776 27.5141 13.8225 27.8679C13.2044 28.4837 12.8447 29.0973 12.7083 29.7683C12.6603 30.0042 12.6555 30.4101 12.6979 30.6338C12.8632 31.5054 13.5379 32.1128 14.5531 32.3039C14.8016 32.3506 15.4532 32.3503 15.749 32.3032C17.3194 32.0531 19.006 31.037 20.6981 29.3217C21.7065 28.2993 22.5523 27.2367 23.5281 25.7658C23.7131 25.487 23.8664 25.2567 23.8689 25.2541C23.8713 25.2515 23.8733 25.2621 23.8733 25.2776C23.8733 25.2931 23.8657 25.3058 23.8565 25.3058C23.8473 25.3058 23.8458 25.3155 23.8532 25.3275C23.8621 25.3419 23.8582 25.344 23.8417 25.3337C23.8235 25.3225 23.8201 25.327 23.8292 25.3506C23.8373 25.3718 23.8344 25.3784 23.8206 25.3699C23.8079 25.362 23.803 25.3672 23.8083 25.383C23.8131 25.3973 23.7555 25.5273 23.6803 25.6719C23.5119 25.9957 23.1799 26.6934 22.9909 27.121C21.9656 29.44 21.4194 31.6204 21.4198 33.3929C21.42 34.2388 21.5142 34.8956 21.7296 35.5515C22.1704 36.8941 23.0827 37.7175 24.1292 37.7175C24.7139 37.7175 25.244 37.469 25.7227 36.9703C26.288 36.3813 26.6517 35.4917 26.8028 34.3283C26.8511 33.9556 26.8513 32.8503 26.803 32.4036C26.5773 30.316 25.8638 28.1465 24.5579 25.5771C24.4033 25.2729 24.2795 25.0241 24.2828 25.0241C24.2861 25.0241 24.3293 25.0896 24.3788 25.1696C24.4284 25.2497 24.5882 25.4968 24.734 25.7189C26.876 28.9814 29.2155 31.1776 31.4332 32.0078C32.5889 32.4404 33.7089 32.4584 34.4953 32.0571C35.5115 31.5385 35.8848 30.4727 35.456 29.3146C35.2699 28.812 34.9328 28.323 34.439 27.8394C33.5731 26.9911 32.4017 26.3302 30.8459 25.8119C29.162 25.251 27.1805 24.9227 24.8372 24.8163C24.5842 24.8048 24.3749 24.7932 24.3722 24.7906C24.3695 24.788 24.547 24.78 24.7666 24.7729C26.0862 24.7303 27.9162 24.5111 29.0245 24.263C29.8665 24.0745 30.1209 24.0059 30.8055 23.7826C33.4704 22.9138 35.2362 21.4521 35.5895 19.8228C35.6415 19.5829 35.6372 19.1207 35.5809 18.8933C35.4809 18.4898 35.3218 18.2009 35.0496 17.9287C34.6451 17.5242 34.0959 17.3 33.3852 17.2492C32.2896 17.1709 30.9168 17.6454 29.5878 18.5616C27.9335 19.7021 26.1933 21.6115 24.6782 23.9486C24.5562 24.1368 24.4494 24.2865 24.4409 24.2812C24.4324 24.276 24.4349 24.2511 24.4463 24.226C24.4578 24.2009 24.4734 24.1842 24.481 24.1889C24.4887 24.1936 24.494 24.187 24.4928 24.1742C24.4917 24.1614 24.6015 23.9271 24.737 23.6534C25.9199 21.2635 26.5781 19.2084 26.7998 17.2128C26.8411 16.8408 26.8574 15.9442 26.8293 15.588C26.7604 14.7133 26.5878 14.0301 26.2838 13.4291C26.0151 12.8976 25.699 12.5194 25.2888 12.2385C24.8757 11.9555 24.4761 11.8495 23.9453 11.8822ZM24.4119 24.3061C24.4187 24.3171 24.4137 24.3304 24.4007 24.3357C24.3838 24.3425 24.3835 24.3456 24.3995 24.3466C24.4318 24.3488 24.4473 24.3156 24.4215 24.2996C24.4084 24.2915 24.4045 24.2941 24.4119 24.3061Z" fill="#F4EDE8"/>
</svg>
