<svg width="233" height="369" viewBox="0 0 233 369" fill="none" xmlns="http://www.w3.org/2000/svg">
<path fill-rule="evenodd" clip-rule="evenodd" d="M361.752 128.42C360.535 125.059 358.969 122.552 356.162 119.473C346.288 108.64 328.456 104.073 307.715 107.064C297.335 108.56 286.109 111.871 274.497 116.859C255.065 125.206 234.097 138.492 213.646 155.417C205.408 162.235 203.139 164.239 193.764 172.981C188.803 177.607 184.768 181.348 184.797 181.294C184.827 181.239 186.53 179.266 188.581 176.908C220.702 139.989 241.363 104.763 249.634 72.8198C250.89 67.969 252.478 58.6481 252.836 54.0182C253.739 42.3484 252.594 32.3973 249.342 23.6613C247.128 17.7121 244.503 13.416 240.549 9.26726C237.947 6.5364 235.526 4.75379 232.049 3.00772C227.409 0.677709 222.168 -0.335149 216.991 0.0975472C214.171 0.332954 208.08 2.12088 205.094 3.58928C200.005 6.09207 194.384 10.7248 189.997 16.0321C168.27 42.3133 162.756 92.7606 174.902 154.118C176.144 160.396 179.43 174.876 180.394 178.326L181.205 181.226L179.946 177.744C179.253 175.829 177.595 171.245 176.261 167.557C159.618 121.54 139.056 87.3672 115.054 65.8374C109.124 60.5178 102.947 56.0978 96.5377 52.5861C85.383 46.4745 75.3214 43.9665 65.3759 44.8187C61.879 45.1182 56.183 46.7193 53.2281 48.2331C41.7174 54.1306 35.9975 66.0651 37.5008 81.0494C37.8687 84.7176 40.5537 93.8288 42.4288 97.772C52.3851 118.708 73.5327 138.119 104.483 154.729C122.93 164.629 141.271 172.087 165.856 179.685C170.516 181.126 174.368 182.324 174.414 182.347C174.46 182.371 174.32 182.442 174.104 182.506C173.887 182.57 173.679 182.516 173.641 182.387C173.603 182.259 173.46 182.277 173.324 182.429C173.159 182.613 173.113 182.569 173.189 182.295C173.271 181.994 173.194 181.966 172.901 182.19C172.638 182.39 172.534 182.376 172.597 182.148C172.654 181.939 172.561 181.892 172.363 182.03C172.182 182.156 170.126 181.885 167.795 181.428C162.574 180.404 151.45 178.631 144.692 177.746C108.041 172.944 75.2995 174.272 50.5104 181.567C38.6796 185.049 29.881 189.069 21.5933 194.778C4.62884 206.466 -3.13614 222.611 1.16804 237.249C3.5729 245.427 9.22987 251.818 18.1736 256.462C28.7364 261.946 42.6745 263.374 59.5674 260.702C64.9785 259.846 80.4376 255.302 86.4873 252.789C114.756 241.047 142.165 222.145 172.731 193.312C176.349 189.9 179.32 187.145 179.333 187.191C179.347 187.237 178.609 188.111 177.693 189.133C176.777 190.155 173.978 193.407 171.472 196.359C134.651 239.735 113.556 281.489 111.066 315.921C109.769 333.864 114.122 349.602 122.97 358.951C134.402 371.031 150.844 371.869 165.279 361.108C171.542 356.439 176.995 349.713 181.729 340.817C190.032 325.217 194.458 306.116 195.308 282.224C196.227 256.366 192.67 227.302 184.52 194.09C183.64 190.504 182.941 187.53 182.967 187.481C182.993 187.433 183.833 189.882 184.836 192.924C190.86 211.206 201.452 235.899 209.48 250.379C215.58 261.38 217.586 264.656 223.524 273.314C246.636 307.011 274.342 325.697 298.582 323.937C302.152 323.678 308.599 321.717 311.547 319.995C316.78 316.936 320.166 313.523 322.853 308.596C326.847 301.275 327.724 292.672 325.511 282.522C322.1 266.877 309.818 249.628 291.538 234.809C268.782 216.362 234.921 199.877 196.002 188.298C192.868 187.365 190.336 186.488 190.374 186.347C190.413 186.207 190.77 186.138 191.168 186.195C191.567 186.252 191.865 186.402 191.83 186.528C191.796 186.655 191.909 186.702 192.084 186.633C192.258 186.564 195.988 187.137 200.373 187.906C238.663 194.621 270.113 195.375 298.937 190.267C304.309 189.316 316.917 185.856 321.783 183.998C333.734 179.437 342.578 174.213 349.734 167.49C356.062 161.545 360.052 155.568 362.294 148.676C364.553 141.734 364.391 135.71 361.752 128.42ZM189.907 186.044C189.781 186.184 189.574 186.169 189.447 186.009C189.283 185.801 189.237 185.809 189.289 186.037C189.392 186.498 189.92 186.578 190.037 186.151C190.097 185.934 190.044 185.891 189.907 186.044Z" fill="#434343"/>
</svg>
