<svg width="50" height="50" viewBox="0 0 50 50" fill="none" xmlns="http://www.w3.org/2000/svg">
<circle cx="25" cy="25" r="25" fill="#565353"/>
<path d="M16.3794 23.7069C15.6652 23.7069 15.0863 24.2858 15.0863 25C15.0863 25.7142 15.6652 26.2931 16.3794 26.2931V25V23.7069ZM34.5351 25.9144C35.0401 25.4094 35.0401 24.5906 34.5351 24.0856L26.3059 15.8564C25.8009 15.3514 24.9821 15.3514 24.4772 15.8564C23.9722 16.3614 23.9722 17.1801 24.4772 17.6851L31.792 25L24.4772 32.3149C23.9722 32.8199 23.9722 33.6386 24.4772 34.1436C24.9821 34.6486 25.8009 34.6486 26.3059 34.1436L34.5351 25.9144ZM16.3794 25V26.2931H33.6208V25V23.7069H16.3794V25Z" fill="#313131"/>
</svg>
